<?xml version="1.0" encoding="UTF-8"?><!DOCTYPE svg PUBLIC "-//W3C//DTD SVG 1.1//EN" "http://www.w3.org/Graphics/SVG/1.1/DTD/svg11.dtd"><svg xmlns="http://www.w3.org/2000/svg" xmlns:xlink="http://www.w3.org/1999/xlink" width="32" height="32" viewBox="0 0 32 32" fill="#000"><path d="M17 2C8.716 2 2 8.716 2 17s6.716 15 15 15 15-6.716 15-15S25.284 2 17 2zm0 28C9.832 30 4 24.168 4 17S9.832 4 17 4s13 5.832 13 13-5.832 13-13 13zm5.536-19.95l-5.498 5.498-4.93-5.498a1 1 0 0 0-1.414 1.414l4.932 5.498-5.574 5.574a1 1 0 0 0 1.414 1.414l5.498-5.498 4.932 5.498a1 1 0 0 0 1.414-1.414l-4.934-5.498 5.574-5.574a1 1 0 0 0-1.414-1.414z"/><metadata><rdf:RDF xmlns:rdf="http://www.w3.org/1999/02/22-rdf-syntax-ns#" xmlns:rdfs="http://www.w3.org/2000/01/rdf-schema#" xmlns:dc="http://purl.org/dc/elements/1.1/"><rdf:Description about="https://iconscout.com/legal#licenses" dc:title="close,alt" dc:description="close,alt" dc:publisher="Iconscout" dc:date="2017-09-25" dc:format="image/svg+xml" dc:language="en"><dc:creator><rdf:Bag><rdf:li>Elegant Themes</rdf:li></rdf:Bag></dc:creator></rdf:Description></rdf:RDF></metadata></svg>