<?xml version="1.0" encoding="UTF-8"?><svg xmlns="http://www.w3.org/2000/svg" xmlns:xlink="http://www.w3.org/1999/xlink" version="1.1" id="Layer_1" x="0px" y="0px" viewBox="0 0 16 16" xml:space="preserve"><path d="M14 6c-1.103 0-2 .897-2 2 0 .551-.449 1-1 1a1.001 1.001 0 0 1-.6-1.8A4.02 4.02 0 0 0 12 4c0-2.206-1.794-4-4-4-2.158 0-4.18.846-5.696 2.383A7.945 7.945 0 0 0 0 8.113C.06 12.404 3.598 15.94 7.887 16H8a7.943 7.943 0 0 0 5.616-2.304A7.943 7.943 0 0 0 16 8c0-1.103-.897-2-2-2zm-1.787 6.272A6 6 0 0 1 7.915 14C4.753 13.956 2.045 11.248 2 8.086a5.958 5.958 0 0 1 1.727-4.299A5.957 5.957 0 0 1 8 2c1.103 0 2 .897 2 2 0 .626-.3 1.224-.8 1.6A3.016 3.016 0 0 0 8 8c0 1.654 1.346 3 3 3s3-1.346 3-3a5.957 5.957 0 0 1-1.787 4.272z"/><circle cx="8.0001488" cy="12" r="1"/><circle cx="8.0001488" cy="4" r="1"/><circle cx="4.0001488" cy="8" r="1"/><ellipse transform="matrix(0.7071068 -0.7071068 0.7071068 0.7071068 -2.1420908 5.1716752)" cx="5.1717186" cy="5.1715698" rx="0.9999795" ry="0.9999795"/><ellipse transform="matrix(0.707122 -0.7070915 0.7070915 0.707122 -6.1419873 6.8282781)" cx="5.1717186" cy="10.8283997" rx="1.0000011" ry="1.0000011"/><metadata><rdf:RDF xmlns:rdf="http://www.w3.org/1999/02/22-rdf-syntax-ns#" xmlns:rdfs="http://www.w3.org/2000/01/rdf-schema#" xmlns:dc="http://purl.org/dc/elements/1.1/"><rdf:Description about="https://iconscout.com/legal#licenses" dc:title="color-palette" dc:description="color-palette" dc:publisher="Iconscout" dc:date="2018-06-20" dc:format="image/svg+xml" dc:language="en"><dc:creator><rdf:Bag><rdf:li>Those Icons</rdf:li></rdf:Bag></dc:creator></rdf:Description></rdf:RDF></metadata></svg>