<svg xmlns="http://www.w3.org/2000/svg" id="Layer_1" viewBox="0 0 32 32"><path d="M11.289 14.359a.499.499 0 0 0-.032.706l.395.434c.235.256.364.589.364.988 0 .276.224.475.5.475s.5-.248.5-.524c0-.6-.223-1.173-.626-1.613l-.395-.433a.5.5 0 0 0-.706-.033zM20.032 14.392l-.395.433a2.422 2.422 0 0 0-.626 1.663c0 .276.224.475.5.475s.5-.248.5-.524c0-.349.129-.682.364-.939l.395-.433a.499.499 0 0 0-.032-.706.498.498 0 0 0-.706.031z"/><path d="M13.661 10.532l-.794.881-2.189 1.313a2.408 2.408 0 0 0-1.162 2.053v1.708a.5.5 0 0 0 1 0v-1.708c0-.486.26-.944.677-1.195l1.867-1.12.992 1.24a.502.502 0 0 0 .363.187l.027.001c.132 0 .26-.053.354-.146l.716-.716v3.458a.5.5 0 0 0 1 0v-3.475l.732.733a.501.501 0 0 0 .354.146l.027-.001a.496.496 0 0 0 .363-.187l.99-1.237 1.861 1.117c.418.251.677.709.677 1.195v1.708a.5.5 0 0 0 1 0v-1.708c0-.836-.445-1.622-1.162-2.053l-2.171-1.303-.803-.891c-.049-.054-.117-.075-.181-.102v-.754a3.346 3.346 0 0 0 1.188-2.546V5.967l.499-2.307a1.808 1.808 0 0 0-.304-1.372 1.799 1.799 0 0 0-1.187-.745l-3.106-.519a1.779 1.779 0 0 0-1.452.4 1.78 1.78 0 0 0-.586.968 1.565 1.565 0 0 0-1.073 1.855l.473 1.728V7.13a3.35 3.35 0 0 0 1.253 2.6v.665a.494.494 0 0 0-.243.137zm.822 2.112l-.648-.811.319-.354 1.012.482-.683.683zm3.074-.001l-.683-.682 1.012-.482.319.354-.648.81zm-4.293-9.107a.56.56 0 0 1 .439-.21c.276 0 .5-.258.5-.534a.794.794 0 0 1 .922-.781l3.106.519a.805.805 0 0 1 .533.335c.128.181.177.4.141.602l-.285 1.315-.235-.293a.5.5 0 0 0-.39-.187h-3.953a.497.497 0 0 0-.39.188l-.276.344-.226-.823a.561.561 0 0 1 .114-.475zm.387 2.552l.631-.785h3.474l.631.784V7.13c0 1.306-1.063 2.368-2.368 2.368s-2.367-1.063-2.367-2.368V6.088zm2.368 4.41c.417 0 .811-.086 1.18-.225v.426l-1.179.561-1.116-.531v-.435a3.33 3.33 0 0 0 1.115.204zM11.016 26.5a.49.49 0 0 0 .257-.071l4.743-2.846 4.743 2.846a.501.501 0 0 0 .514-.858l-4.757-2.854V18.5a.5.5 0 0 0-1 0v4.217l-4.757 2.854a.5.5 0 0 0 .257.929zM2.368 27.213A2.145 2.145 0 0 0 .984 29.21v1.29a.5.5 0 0 0 1 0v-1.29c0-.47.296-.896.735-1.062l1.786-.67c.304.501.851.841 1.479.841s1.174-.339 1.478-.841l1.787.67c.439.166.735.592.735 1.062v1.29a.5.5 0 0 0 1 0v-1.29c0-.884-.556-1.687-1.384-1.997l-1.883-.706v-.85a2.529 2.529 0 0 0 .797-1.839v-.943l.473-1.734a1.48 1.48 0 0 0-.246-1.12 1.474 1.474 0 0 0-.973-.612l-2.326-.388a1.468 1.468 0 0 0-1.652 1.05 1.3 1.3 0 0 0-.566.405c-.247.307-.342.702-.231 1.175l.44 1.054v1.113c0 .734.318 1.391.817 1.856v.833l-1.882.706zm2.065-3.395v-.749c.005-.007.013-.01.018-.018l.329-.577h2.405l.33.484v.86c0 .85-.691 1.541-1.541 1.541s-1.541-.691-1.541-1.541zm-.431-2.714a.292.292 0 0 1 .231-.11c.276 0 .5-.249.5-.525a.46.46 0 0 1 .165-.356.462.462 0 0 1 .38-.104l2.326.388a.48.48 0 0 1 .318.201.476.476 0 0 1 .09.323l-.196.717a.497.497 0 0 0-.368-.162h-2.96a.497.497 0 0 0-.406.209l-.14-.329a.299.299 0 0 1 .06-.252zm1.972 5.255c.261 0 .507-.051.744-.124v.35a.734.734 0 0 1-1.467 0v-.343c.23.069.47.117.723.117zM30.484 31a.5.5 0 0 0 .5-.5v-1.29c0-.884-.556-1.687-1.384-1.997l-1.635-.613-.247-.383v-.56a2.529 2.529 0 0 0 .797-1.839v-.943l.473-1.734a1.48 1.48 0 0 0-.246-1.12 1.474 1.474 0 0 0-.973-.612l-2.326-.388a1.47 1.47 0 0 0-1.189.327c-.225.19-.384.439-.463.723a1.3 1.3 0 0 0-.566.405c-.247.307-.342.702-.231 1.175l.44 1.054v1.113c0 .734.318 1.391.817 1.856v.543l-.247.382-1.635.613a2.145 2.145 0 0 0-1.384 1.997v1.29a.5.5 0 0 0 1 0v-.775l1.109-1.717 1.413-.53c.304.501.851.841 1.479.841s1.174-.339 1.478-.841l1.413.529 1.11 1.718v.776c-.003.276.221.5.497.5zm-6.051-7.182v-.749c.005-.007.013-.01.018-.018l.329-.577h2.405l.33.484v.86c0 .85-.691 1.541-1.541 1.541s-1.541-.691-1.541-1.541zm-.431-2.714a.292.292 0 0 1 .231-.11c.276 0 .5-.249.5-.525a.46.46 0 0 1 .165-.356.462.462 0 0 1 .38-.104l2.326.388a.48.48 0 0 1 .318.201.476.476 0 0 1 .09.323l-.196.717a.497.497 0 0 0-.368-.162h-2.96a.497.497 0 0 0-.406.209l-.14-.329a.299.299 0 0 1 .06-.252zm1.982 6.215a.734.734 0 0 1-.734-.734v-.343c.231.069.471.118.724.118.261 0 .507-.051.744-.124v.35a.734.734 0 0 1-.734.733z"/></svg>