<svg xmlns="http://www.w3.org/2000/svg" id="Layer_1" enable-background="new 0 0 64 64" viewBox="0 0 64 64"><path d="M61.68,48.16H46.33c-1.17,0-2.16-0.87-2.3-2.03c-0.28-2.23-1.17-4.33-2.58-6.08c-0.72-0.9-0.68-2.19,0.11-3.03
						c2.44-2.62,5.9-4.13,9.49-4.13c7.15,0,12.96,5.81,12.96,12.96C64,47.12,62.96,48.16,61.68,48.16z M48.25,43.52h10.78
						c-1.01-3.46-4.21-6-7.99-6c-1.71,0-3.33,0.5-4.7,1.45C47.2,40.38,47.84,41.91,48.25,43.52z"/><path d="M51.04,34.32c-3.09,0-5.83-2.07-6.66-5.03c-0.17-0.6-0.27-1.24-0.27-1.9c0-3.82,3.11-6.93,6.93-6.93
					s6.93,3.11,6.93,6.93c0,0.65-0.09,1.3-0.27,1.91C56.87,32.25,54.12,34.32,51.04,34.32z M51.04,25.1c-1.26,0-2.29,1.03-2.29,2.29
					c0,0.22,0.03,0.42,0.08,0.61c0.28,1,1.19,1.68,2.21,1.68c1.02,0,1.93-0.68,2.2-1.66c0.06-0.21,0.09-0.42,0.09-0.63
					C53.33,26.13,52.3,25.1,51.04,25.1z"/><g><path d="M17.68,48.16H2.32C1.04,48.16,0,47.12,0,45.84c0-7.15,5.82-12.96,12.97-12.96c3.59,0,7.04,1.51,9.49,4.14
						c0.79,0.85,0.83,2.14,0.1,3.04c-1.42,1.75-2.31,3.85-2.58,6.07C19.84,47.28,18.85,48.16,17.68,48.16z M4.97,43.52h10.79
						c0.4-1.6,1.05-3.14,1.91-4.55c-1.37-0.94-2.99-1.45-4.69-1.45C9.18,37.52,5.97,40.05,4.97,43.52z"/><path d="M12.96,34.32c-3.09,0-5.83-2.07-6.66-5.03c-0.17-0.6-0.27-1.24-0.27-1.9c0-3.82,3.11-6.93,6.93-6.93
					s6.93,3.11,6.93,6.93c0,0.65-0.09,1.3-0.27,1.91C18.79,32.25,16.05,34.32,12.96,34.32z M12.96,25.1c-1.26,0-2.29,1.03-2.29,2.29
					c0,0.22,0.03,0.42,0.08,0.61c0.28,1,1.19,1.68,2.21,1.68c1.02,0,1.93-0.68,2.2-1.66c0.06-0.21,0.09-0.42,0.09-0.63
					C15.26,26.13,14.23,25.1,12.96,25.1z"/></g><g><path d="M46.45,49.96H17.56c-1.28,0-2.32-1.04-2.32-2.32c0-0.73,0.05-1.44,0.14-2.12c0.37-3.06,1.61-5.97,3.57-8.39
					c3.2-3.97,7.95-6.25,13.05-6.25c5.09,0,9.85,2.28,13.05,6.24c1.96,2.42,3.19,5.34,3.57,8.42c0.09,0.65,0.13,1.36,0.13,2.09
					C48.76,48.92,47.73,49.96,46.45,49.96z M20.1,45.32h23.8c-0.38-1.94-1.21-3.75-2.45-5.28c-2.32-2.87-5.76-4.52-9.44-4.52
					c-3.69,0-7.13,1.65-9.44,4.52C21.31,41.59,20.47,43.4,20.1,45.32z"/><path d="M32,31.19c-3.82,0-7.21-2.56-8.25-6.23c-0.22-0.74-0.33-1.54-0.33-2.35c0-4.73,3.85-8.58,8.58-8.58s8.58,3.85,8.58,8.58
				c0,0.81-0.11,1.61-0.34,2.37C39.21,28.63,35.82,31.19,32,31.19z M32,18.68c-2.17,0-3.94,1.77-3.94,3.94
				c0,0.37,0.05,0.73,0.15,1.07c0.48,1.7,2.04,2.87,3.79,2.87c1.75,0,3.31-1.17,3.78-2.85c0.1-0.36,0.15-0.72,0.15-1.09
				C35.94,20.44,34.17,18.68,32,18.68z"/></g></svg>