<?xml version="1.0" encoding="UTF-8" standalone="no"?>
<svg xmlns:dc="http://purl.org/dc/elements/1.1/" xmlns:cc="http://creativecommons.org/ns#" xmlns:rdf="http://www.w3.org/1999/02/22-rdf-syntax-ns#" xmlns:svg="http://www.w3.org/2000/svg" xmlns="http://www.w3.org/2000/svg" xmlns:sodipodi="http://sodipodi.sourceforge.net/DTD/sodipodi-0.dtd" xmlns:inkscape="http://www.inkscape.org/namespaces/inkscape" width="48" height="48" viewBox="0 0 48 48.000001" id="svg6485" version="1.1" inkscape:version="0.91 r" sodipodi:docname="password-lock-protection-secure-security.svg">
  <defs id="defs6487">
    <inkscape:path-effect is_visible="true" id="path-effect4239" effect="spiro"/>
    <inkscape:path-effect effect="spiro" id="path-effect4223" is_visible="true"/>
    <inkscape:path-effect is_visible="true" id="path-effect4217" effect="spiro"/>
    <inkscape:path-effect effect="spiro" id="path-effect4213" is_visible="true"/>
    <inkscape:path-effect effect="spiro" id="path-effect5296" is_visible="true"/>
    <inkscape:path-effect effect="spiro" id="path-effect7060" is_visible="true"/>
  </defs>
  <sodipodi:namedview id="base" pagecolor="#ffffff" bordercolor="#666666" borderopacity="1.0" inkscape:pageopacity="0.0" inkscape:pageshadow="2" inkscape:zoom="8.0000004" inkscape:cx="12.350843" inkscape:cy="25.205782" inkscape:document-units="px" inkscape:current-layer="layer1" showgrid="true" units="px" inkscape:window-width="1309" inkscape:window-height="744" inkscape:window-x="57" inkscape:window-y="24" inkscape:window-maximized="1" inkscape:snap-global="false"/>
  
  <g inkscape:label="Layer 1" inkscape:groupmode="layer" id="layer1" transform="translate(0,-1004.3622)">
    <g id="g6495">
      <g transform="matrix(0.6,0,0,0.6,9.6,411.34542)" id="g7722">
        <path style="color:#000000;font-style:normal;font-variant:normal;font-weight:normal;font-stretch:normal;font-size:medium;line-height:normal;font-family:sans-serif;text-indent:0;text-align:start;text-decoration:none;text-decoration-line:none;text-decoration-style:solid;text-decoration-color:#000000;letter-spacing:normal;word-spacing:normal;text-transform:none;direction:ltr;block-progression:tb;writing-mode:lr-tb;baseline-shift:baseline;text-anchor:start;white-space:normal;clip-rule:nonzero;display:inline;overflow:visible;visibility:visible;opacity:1;isolation:auto;mix-blend-mode:normal;color-interpolation:sRGB;color-interpolation-filters:linearRGB;solid-color:#000000;solid-opacity:1;fill:#343433;fill-opacity:1;fill-rule:nonzero;stroke:none;stroke-width:1.49999988;stroke-linecap:round;stroke-linejoin:round;stroke-miterlimit:4;stroke-dasharray:none;stroke-dashoffset:0;stroke-opacity:1;color-rendering:auto;image-rendering:auto;shape-rendering:auto;text-rendering:auto;enable-background:accumulate" d="m 37.773438,1050.8613 c 1.83579,0 3.33789,-1.5002 3.33789,-3.3359 l 0,-18.9727 c 0,-1.8357 -1.502135,-3.3359 -3.33789,-3.3359 l -27.546876,0 c -1.8357547,0 -3.3378901,1.5002 -3.3378901,3.3359 l 0,18.9727 c 0,1.8357 1.5021005,3.3359 3.3378901,3.3359 l 27.546876,0 z m 0,-1.5 -27.546876,0 c -1.0306912,0 -1.8378901,-0.8052 -1.8378901,-1.8359 l 0,-18.9727 c 0,-1.0306 0.807164,-1.8359 1.8378901,-1.8359 l 27.546876,0 c 1.030726,0 1.83789,0.8053 1.83789,1.8359 l 0,18.9727 c 0,1.0307 -0.807199,1.8359 -1.83789,1.8359 z" id="rect4199-3" inkscape:connector-curvature="0"/>
        <path style="color:#000000;font-style:normal;font-variant:normal;font-weight:normal;font-stretch:normal;font-size:medium;line-height:normal;font-family:sans-serif;text-indent:0;text-align:start;text-decoration:none;text-decoration-line:none;text-decoration-style:solid;text-decoration-color:#000000;letter-spacing:normal;word-spacing:normal;text-transform:none;direction:ltr;block-progression:tb;writing-mode:lr-tb;baseline-shift:baseline;text-anchor:start;white-space:normal;clip-rule:nonzero;display:inline;overflow:visible;visibility:visible;opacity:1;isolation:auto;mix-blend-mode:normal;color-interpolation:sRGB;color-interpolation-filters:linearRGB;solid-color:#000000;solid-opacity:1;fill:#343433;fill-opacity:1;fill-rule:nonzero;stroke:none;stroke-width:1.49999988;stroke-linecap:round;stroke-linejoin:round;stroke-miterlimit:4;stroke-dasharray:none;stroke-dashoffset:0;stroke-opacity:1;color-rendering:auto;image-rendering:auto;shape-rendering:auto;text-rendering:auto;enable-background:accumulate" d="m 23.470703,1005.8613 a 0.75007494,0.75007494 0 0 0 -0.259765,0.053 c -6.26997,0.1461 -11.312499,5.2092 -11.3125,11.5097 l 0,8.0586 a 0.75007494,0.75007494 0 1 0 1.5,0 l 0,-8.0586 c 0,-5.5869 4.478779,-10.0625 10.072265,-10.0625 l 1.058594,0 c 5.593488,0 10.072266,4.4756 10.072265,10.0625 l 0,8.3223 a 0.75007494,0.75007494 0 1 0 1.5,0 l 0,-8.3223 c 0,-6.3927 -5.174491,-11.5625 -11.572265,-11.5625 l -1.058594,0 z m 0.164063,2.9278 c -4.530714,0 -8.207032,3.6432 -8.207032,8.1464 l 0,8.752 a 0.75007494,0.75007494 0 1 0 1.5,0 l 0,-8.752 c 0,-3.6915 2.974717,-6.6464 6.707032,-6.6464 l 0.730468,0 c 3.732316,0 6.707032,2.9549 6.707032,6.6464 l 0,8.7911 a 0.75007494,0.75007494 0 1 0 1.5,0 l 0,-8.7911 c 0,-4.5032 -3.676317,-8.1464 -8.207032,-8.1464 l -0.71875,0 -0.01172,0 z" id="path4211-6" inkscape:connector-curvature="0"/>
        <path style="color:#000000;font-style:normal;font-variant:normal;font-weight:normal;font-stretch:normal;font-size:medium;line-height:normal;font-family:sans-serif;text-indent:0;text-align:start;text-decoration:none;text-decoration-line:none;text-decoration-style:solid;text-decoration-color:#000000;letter-spacing:normal;word-spacing:normal;text-transform:none;direction:ltr;block-progression:tb;writing-mode:lr-tb;baseline-shift:baseline;text-anchor:start;white-space:normal;clip-rule:nonzero;display:inline;overflow:visible;visibility:visible;opacity:1;isolation:auto;mix-blend-mode:normal;color-interpolation:sRGB;color-interpolation-filters:linearRGB;solid-color:#000000;solid-opacity:1;fill:#343433;fill-opacity:1;fill-rule:nonzero;stroke:none;stroke-width:1.5;stroke-linecap:round;stroke-linejoin:round;stroke-miterlimit:4;stroke-dasharray:none;stroke-dashoffset:0;stroke-opacity:1;color-rendering:auto;image-rendering:auto;shape-rendering:auto;text-rendering:auto;enable-background:accumulate" d="m 24,1031.7246 c -1.964091,-10e-5 -3.572373,1.6082 -3.572266,3.5723 4.14e-4,1.1099 0.592839,2.0741 1.453125,2.7441 l 0,4.1934 c 0,1.1609 0.956917,2.1211 2.119141,2.1211 1.162224,0 2.119141,-0.9602 2.119141,-2.1211 l 0,-4.1953 c 0.859424,-0.6696 1.451965,-1.6333 1.453125,-2.7422 1.07e-4,-1.9641 -1.608175,-3.5724 -3.572266,-3.5723 z m 0,1.5 c 1.153379,0 2.072329,0.9189 2.072266,2.0723 -0.0015,0.7527 -0.408056,1.4434 -1.066407,1.8086 a 0.750075,0.750075 0 0 0 -0.386718,0.6562 l 0,4.4727 c 0,0.357 -0.263383,0.6211 -0.619141,0.6211 -0.355758,0 -0.619141,-0.2641 -0.619141,-0.6211 l 0,-4.4707 a 0.750075,0.750075 0 0 0 -0.386718,-0.6563 c -0.658792,-0.3654 -1.065424,-1.0573 -1.066407,-1.8105 -6.3e-5,-1.1534 0.918887,-2.0723 2.072266,-2.0723 z" id="path4755" inkscape:connector-curvature="0"/>
      </g>
      <path inkscape:connector-curvature="0" id="path4197" d="m 24,1005.3622 c -12.696627,0 -23.00000006,10.3034 -23.00000006,23 0,12.6967 10.30337306,23 23.00000006,23 12.696627,0 23,-10.3033 23,-23 0,-12.6966 -10.303373,-23 -23,-23 z m 0,1 c 12.156187,0 22,9.8438 22,22 0,12.1562 -9.843813,22 -22,22 -12.156187,0 -22.0000001,-9.8438 -22.0000001,-22 0,-12.1562 9.8438131,-22 22.0000001,-22 z" style="color:#000000;font-style:normal;font-variant:normal;font-weight:normal;font-stretch:normal;font-size:medium;line-height:normal;font-family:sans-serif;text-indent:0;text-align:start;text-decoration:none;text-decoration-line:none;text-decoration-style:solid;text-decoration-color:#000000;letter-spacing:normal;word-spacing:normal;text-transform:none;direction:ltr;block-progression:tb;writing-mode:lr-tb;baseline-shift:baseline;text-anchor:start;white-space:normal;clip-rule:nonzero;display:inline;overflow:visible;visibility:visible;opacity:1;isolation:auto;mix-blend-mode:normal;color-interpolation:sRGB;color-interpolation-filters:linearRGB;solid-color:#000000;solid-opacity:1;fill:#343433;fill-opacity:1;fill-rule:nonzero;stroke:none;stroke-width:1;stroke-linecap:round;stroke-linejoin:miter;stroke-miterlimit:4;stroke-dasharray:none;stroke-dashoffset:0;stroke-opacity:1;color-rendering:auto;image-rendering:auto;shape-rendering:auto;text-rendering:auto;enable-background:accumulate"/>
    </g>
  </g>

	<metadata>
		<rdf:RDF xmlns:rdf="http://www.w3.org/1999/02/22-rdf-syntax-ns#" xmlns:rdfs="http://www.w3.org/2000/01/rdf-schema#" xmlns:dc="http://purl.org/dc/elements/1.1/">
			<rdf:Description about="https://iconscout.com/legal#licenses" dc:title="password-lock-protection-secure-security" dc:description="password-lock-protection-secure-security" dc:publisher="Iconscout" dc:date="2017-01-08" dc:format="image/svg+xml" dc:language="en">
				<dc:creator>
					<rdf:Bag>
						<rdf:li>Devendra Karkar</rdf:li>
					</rdf:Bag>
				</dc:creator>
			</rdf:Description>
		</rdf:RDF>
    </metadata></svg>
