<?xml version="1.0" encoding="UTF-8" ?>
<svg xmlns="http://www.w3.org/2000/svg" xmlns:xlink="http://www.w3.org/1999/xlink" version="1.1" id="Layer_1" x="0px" y="0px" viewBox="0 0 24 24" xml:space="preserve">
  <path fill="#2D98D4" d="M12 0C5.383 0 0 5.383 0 12s5.383 12 12 12 12-5.383 12-12S18.617 0 12 0z" />
  <path opacity="0.2" fill="#FFF" d="M12 .25c6.575 0 11.926 5.316 11.994 11.875 0-.042.006-.083.006-.125 0-6.617-5.383-12-12-12S0 5.383 0 12c0 .042.006.083.006.125C.074 5.566 5.426.25 12 .25z" />
  <circle fill="#FFF" cx="12" cy="9" r="6" />
  <path fill="#FFF" d="M20.539 18.255C18.535 17.226 15.427 16 12 16s-6.535 1.226-8.539 2.255c-.425.219-.8.502-1.127.826C4.52 22.057 8.034 24 12 24s7.48-1.943 9.666-4.919a4.559 4.559 0 0 0-1.127-.826z" />
  <path opacity="0.2" fill="#FFF" d="M12 3.25c3.266 0 5.926 2.625 5.994 5.875 0-.042.006-.083.006-.125 0-3.309-2.691-6-6-6S6 5.691 6 9c0 .042.005.083.006.125C6.074 5.875 8.734 3.25 12 3.25z" />
  <path opacity="0.1" fill="#010101" d="M12 23.75C5.425 23.75.074 18.434.006 11.875c0 .042-.006.083-.006.125 0 6.617 5.383 12 12 12s12-5.383 12-12c0-.042-.006-.083-.006-.125C23.926 18.434 18.574 23.75 12 23.75z" />
  <path opacity="0.1" fill="#010101" d="M12 14.75c-3.266 0-5.926-2.625-5.994-5.875C6.006 8.917 6 8.958 6 9c0 3.309 2.691 6 6 6s6-2.691 6-6c0-.042-.005-.083-.006-.125-.068 3.25-2.728 5.875-5.994 5.875z" />
  <path opacity="0.2" fill="#FFF" d="M20.539 18.255C18.535 17.226 15.427 16 12 16s-6.535 1.226-8.539 2.255c-.425.219-.8.502-1.127.826l.104.14a4.58 4.58 0 0 1 1.023-.716C5.465 17.476 8.573 16.25 12 16.25s6.535 1.226 8.539 2.255a4.58 4.58 0 0 1 1.023.716l.104-.14a4.559 4.559 0 0 0-1.127-.826z" />
  <linearGradient id="SVGID_1_" gradientUnits="userSpaceOnUse" x1="1.1249185" y1="6.9288664" x2="22.875082" y2="17.0711346">
    <stop offset="0" stop-color="#FFF" stop-opacity="0.2" />
    <stop offset="1" stop-color="#FFF" stop-opacity="0" />
  </linearGradient>
  <path fill="url(#SVGID_1_)" d="M12 0C5.383 0 0 5.383 0 12s5.383 12 12 12 12-5.383 12-12S18.617 0 12 0z" />
  <metadata>
    <rdf:RDF xmlns:rdf="http://www.w3.org/1999/02/22-rdf-syntax-ns#" xmlns:rdfs="http://www.w3.org/2000/01/rdf-schema#" xmlns:dc="http://purl.org/dc/elements/1.1/">
      <rdf:Description about="https://iconscout.com/legal#licenses" dc:title="user,symbol,person" dc:description="user,symbol,person" dc:publisher="Iconscout" dc:date="2017-10-09" dc:format="image/svg+xml" dc:language="en">
        <dc:creator>
          <rdf:Bag>
            <rdf:li>Those Icons</rdf:li>
          </rdf:Bag>
        </dc:creator>
      </rdf:Description>
    </rdf:RDF>
  </metadata>
</svg>