<?xml version="1.0" standalone="no"?>
<!DOCTYPE svg PUBLIC "-//W3C//DTD SVG 20010904//EN"
 "http://www.w3.org/TR/2001/REC-SVG-20010904/DTD/svg10.dtd">
<svg version="1.0" xmlns="http://www.w3.org/2000/svg"
 width="200.000000pt" height="200.000000pt" viewBox="0 0 200.000000 200.000000"
 preserveAspectRatio="xMidYMid meet">
<metadata>
Created by potrace 1.11, written by Peter Selinger 2001-2013
</metadata>
<g transform="translate(0.000000,200.000000) scale(0.100000,-0.100000)"
fill="#000000" stroke="none">
<path d="M130 1317 c-23 -12 -25 -19 -28 -91 -4 -106 5 -116 105 -116 40 0 73
3 74 8 0 4 1 28 2 54 2 49 -6 59 -39 53 -11 -2 -23 -4 -28 -4 -4 -1 -6 -12 -4
-26 4 -21 1 -25 -19 -25 -23 0 -24 3 -21 48 l3 47 40 3 c44 4 55 14 48 43 -4
16 -15 19 -57 19 -28 0 -62 -6 -76 -13z"/>
<path d="M320 1220 l0 -110 80 0 c46 0 81 4 81 10 5 42 3 45 -31 47 -19 1 -41
2 -47 2 -27 2 -11 20 20 23 27 2 32 7 32 28 0 21 -5 26 -32 28 -49 5 -40 20
14 24 43 3 48 5 48 28 -1 24 -2 25 -83 28 l-82 3 0 -111z"/>
<path d="M520 1220 l0 -110 80 0 c44 0 80 3 81 8 0 4 2 15 4 25 4 19 -27 31
-65 25 -13 -2 -25 2 -27 9 -3 7 9 13 29 15 28 2 34 7 36 31 3 25 1 27 -32 27
-53 0 -43 18 12 22 47 3 49 4 43 48 0 6 -35 10 -81 10 l-80 0 0 -110z"/>
<path d="M720 1220 l0 -110 80 0 c46 0 81 4 81 10 6 43 4 45 -40 47 -24 1 -46
4 -49 7 -9 10 7 19 35 20 23 1 28 6 28 26 0 21 -5 26 -32 28 -49 5 -40 22 12
22 25 0 46 5 46 10 6 46 7 45 -78 48 l-83 3 0 -111z"/>
<path d="M920 1220 l0 -110 35 0 35 0 0 53 1 52 24 -28 c14 -15 25 -39 25 -53
0 -21 5 -24 35 -24 l35 0 0 110 0 110 -35 0 c-34 0 -35 -1 -35 -37 l0 -38 -33
38 c-23 26 -41 37 -60 37 l-27 0 0 -110z"/>
<path d="M1150 1220 l0 -110 84 0 c88 0 88 0 77 51 0 3 -19 6 -41 6 -62 0 -72
20 -12 25 28 2 32 6 32 30 0 25 -3 28 -35 28 -19 0 -35 5 -35 10 0 6 20 10 44
10 45 0 61 15 50 45 -5 12 -24 15 -85 15 l-79 0 0 -110z"/>
<path d="M1374 1320 c-39 -16 -39 -105 0 -120 11 -5 34 -11 50 -15 39 -8 27
-16 -30 -18 -44 -2 -48 -4 -48 -27 -1 -24 2 -25 71 -28 66 -3 73 -1 87 21 16
23 16 72 2 96 -4 6 -25 14 -47 17 -51 9 -50 22 3 26 38 3 43 6 43 28 0 23 -4
25 -55 27 -30 1 -65 -2 -76 -7z"/>
<path d="M1549 1328 c-1 -2 -2 -15 -3 -30 -2 -23 1 -28 19 -28 19 0 21 -5 21
-49 -1 -43 -4 -51 -23 -56 -17 -4 -22 -11 -19 -28 3 -20 9 -22 80 -25 l77 -3
-3 28 c-2 17 -10 29 -23 33 -16 4 -20 13 -19 40 2 58 3 60 23 60 13 0 18 7 17
28 -1 27 -2 27 -73 30 -40 2 -73 2 -74 0z"/>
<path d="M1760 1323 c-23 -9 -30 -24 -30 -65 0 -40 21 -68 50 -68 10 0 25 -3
34 -6 29 -11 8 -21 -39 -18 -44 3 -45 2 -45 -27 l0 -29 69 0 c82 0 101 13 101
69 0 45 -14 60 -64 68 -51 8 -45 23 9 23 43 0 45 1 45 30 0 30 0 30 -57 29
-32 0 -65 -3 -73 -6z"/>
<path d="M987 888 c-13 -24 -34 -61 -47 -82 l-24 -39 41 6 41 7 -13 -55 c-7
-30 -10 -55 -6 -55 5 0 89 137 100 163 2 5 -13 7 -34 4 l-37 -5 5 38 c2 20 7
42 11 49 4 6 3 11 -3 11 -5 0 -20 -19 -34 -42z"/>
<path d="M639 847 c-9 -25 -7 -56 5 -60 9 -4 18 -2 21 3 4 6 2 10 -3 10 -5 0
-9 7 -9 15 0 8 4 12 9 9 4 -3 8 -1 8 4 0 8 -28 26 -31 19z"/>
<path d="M691 842 c-15 -5 -14 -32 2 -32 9 0 8 -3 -2 -9 -18 -11 -1 -20 23
-12 17 7 17 8 2 24 -16 16 -16 17 3 17 14 0 21 -6 21 -20 0 -27 13 -25 26 4
11 23 9 24 -27 28 -21 2 -43 2 -48 0z"/>
<path d="M1206 825 c4 -8 1 -15 -5 -15 -6 0 -11 -4 -11 -10 0 -13 93 -10 102
3 10 16 -2 37 -22 37 -10 0 -20 -9 -23 -20 -3 -11 -11 -20 -17 -20 -9 0 -10 3
-1 13 12 15 5 27 -15 27 -8 0 -11 -6 -8 -15z m70 -22 c-10 -10 -19 5 -10 18 6
11 8 11 12 0 2 -7 1 -15 -2 -18z"/>
<path d="M1310 829 c0 -5 5 -7 10 -4 17 10 11 -7 -7 -20 -14 -11 -13 -13 9
-17 22 -4 25 -1 26 24 0 21 -4 28 -19 28 -10 0 -19 -5 -19 -11z"/>
<path d="M1367 834 c-4 -4 -7 -16 -7 -26 0 -14 6 -19 23 -16 14 2 22 10 22 23
0 20 -25 32 -38 19z m28 -25 c-10 -15 -25 -10 -19 6 4 8 10 12 15 9 5 -3 7
-10 4 -15z"/>
</g>
</svg>
